<svg width="32" height="32" viewBox="0 0 32 32" fill="none" xmlns="http://www.w3.org/2000/svg">
<path fill-rule="evenodd" clip-rule="evenodd" d="M29 6.18637C29 4.42777 27.5722 3 25.8136 3H6.18637C4.42777 3 3 4.42777 3 6.18637V25.8136C3 27.5722 4.42777 29 6.18637 29H25.8136C27.5722 29 29 27.5722 29 25.8136V6.18637ZM17.3988 16.0001C17.3988 19.4246 14.6416 22.2006 11.2405 22.2006C7.8395 22.2006 5.08203 19.4246 5.08203 16.0001C5.08203 12.5756 7.83925 9.79936 11.2405 9.79936C14.6418 9.79936 17.3988 12.5756 17.3988 16.0001ZM24.1547 16.0001C24.1547 19.2235 22.776 21.8377 21.0754 21.8377C19.3748 21.8377 17.9962 19.2235 17.9962 16.0001C17.9962 12.7767 19.3746 10.1626 21.0752 10.1626C22.7758 10.1626 24.1545 12.7758 24.1545 16.0001H24.1547ZM26.918 16.0001C26.918 18.8875 26.4332 21.2296 25.835 21.2296C25.2368 21.2296 24.7522 18.8881 24.7522 16.0001C24.7522 13.1121 25.237 10.7706 25.835 10.7706C26.433 10.7706 26.918 13.1119 26.918 16.0001Z" fill="white"/>
</svg>
