<svg width="41" height="42" viewBox="0 0 41 42" fill="none" xmlns="http://www.w3.org/2000/svg">
<rect x="1.01172" y="0.882812" width="40" height="40" rx="4.68966" transform="rotate(0.333266 1.01172 0.882812)" fill="#E4E3F8"/>
<path d="M32.322 19.7279H25.6382L31.4267 16.386L30.1555 14.1836L24.3671 17.5255L27.7083 11.7375L25.5059 10.4656L22.1646 16.2536V9.57031H19.6222V16.2542L16.2797 10.4656L14.078 11.7369L17.4198 17.5249L11.6314 14.1836L10.3601 16.3853L16.1486 19.7273H9.46484V22.2699H16.1479L10.3601 25.6118L11.6314 27.8142L17.4192 24.4729L14.0773 30.2609L16.2797 31.5321L19.6215 25.7436V32.4275H22.164V25.7442L25.5053 31.5321L27.7075 30.2609L24.3657 24.4723L30.1542 27.8142L31.4255 25.6118L25.6376 22.2705H32.3207V19.7279H32.322ZM20.8934 24.4569C18.9763 24.4569 17.4224 22.903 17.4224 20.9858C17.4224 19.0686 18.9763 17.5146 20.8934 17.5146C22.8105 17.5146 24.3644 19.0686 24.3644 20.9858C24.3644 22.903 22.8105 24.4569 20.8934 24.4569Z" fill="#625DF5"/>
</svg>
