<svg width="41" height="41" viewBox="0 0 41 41" fill="none" xmlns="http://www.w3.org/2000/svg">
<rect x="0.460938" y="0.0585938" width="40" height="40" rx="4.68966" transform="rotate(0.333266 0.460938 0.0585938)" fill="white"/>
<g clip-path="url(#clip0_914_4795)">
<path d="M36.6747 4.04688H4.08203V36.6397H36.6747V4.04688Z" fill="#4FC7EC"/>
<path d="M35.2402 5.48047H5.51562V35.205H35.2402V5.48047Z" fill="#242238"/>
<path d="M12.0079 11.8776C12.0079 11.7653 12.0272 11.7207 12.1235 11.7207C12.8563 11.6981 14.3031 11.6758 15.7688 11.6758C19.5488 11.6758 20.9906 13.8752 21.0099 16.4765C21.0099 20.0416 18.3529 21.3933 15.518 21.3933C14.978 21.3933 14.4573 21.3933 14.3221 21.3933V26.4871C14.3221 26.6216 14.2837 26.6666 14.1871 26.6666H12.1428C12.0464 26.6666 12.0078 26.6217 12.0078 26.5097V11.8776H12.0079ZM14.3222 19.2184C14.4766 19.2408 14.7658 19.263 15.576 19.263C17.0994 19.263 18.5651 18.8289 18.5651 16.5865C18.5651 14.7926 17.5817 13.8712 15.7689 13.8712C15.0167 13.8712 14.4766 13.8935 14.3222 13.9161V19.2184Z" fill="#4FC7EC"/>
<path d="M25.8218 17.5592C24.893 17.5592 24.6469 18.1401 24.6469 18.5661C24.6469 19.1044 24.893 19.3958 26.3145 20.0686C28.2663 21.0104 29.1002 21.8402 29.1002 23.4544C29.1002 25.6969 27.641 26.9727 25.5563 26.9727C24.552 26.9727 23.2847 26.8769 22.4888 26.294C22.4129 26.2491 22.375 26.1819 22.375 26.0696V24.0067C22.375 23.8946 22.4509 23.8497 22.5078 23.8946C23.4931 24.6345 24.5921 24.8448 25.5775 24.8448C26.4493 24.8448 26.7524 24.2637 26.7524 23.7705C26.7524 23.1875 26.5418 22.851 25.1773 22.2008C23.2254 21.259 22.4129 20.4497 22.4129 18.8128C22.4129 16.9964 23.7749 15.4961 26.0111 15.4961C27.167 15.4961 27.9818 15.5271 28.5126 15.8856C28.6072 15.9754 28.6262 16.0426 28.6262 16.1772V18.0159C28.6262 18.1503 28.5504 18.2178 28.4557 18.1503C27.7735 17.702 26.8071 17.5592 25.8218 17.5592Z" fill="#4FC7EC"/>
</g>
<defs>
<clipPath id="clip0_914_4795">
<rect width="32.6836" height="32.6836" fill="white" transform="translate(4 4)"/>
</clipPath>
</defs>
</svg>
