<svg width="41" height="40" viewBox="0 0 41 40" fill="none" xmlns="http://www.w3.org/2000/svg">
<rect x="0.171875" width="40" height="40" rx="4.68966" fill="#F8C649"/>
<path fill-rule="evenodd" clip-rule="evenodd" d="M19.4459 14.2972C19.7114 14.2645 19.9987 14.2931 20.2233 14.4505C20.4823 14.6205 20.6248 14.9301 20.6341 15.2345C20.6521 15.3245 20.6304 15.4145 20.6269 15.5047C20.5973 15.78 20.4533 16.048 20.2198 16.2027C19.9692 16.37 19.6475 16.3969 19.3582 16.3359C19.1116 16.2834 18.8868 16.1336 18.7532 15.9185C18.5927 15.6633 18.5635 15.3423 18.6233 15.0517C18.679 14.7737 18.8643 14.5233 19.1203 14.3985C19.2221 14.3466 19.3331 14.3148 19.4459 14.2972ZM26.2361 17.4627C26.5035 17.4191 26.7709 17.3765 27.0384 17.3316C27.0394 17.9064 27.0375 18.4811 27.0392 19.0559C26.774 19.1062 26.5083 19.1533 26.2431 19.2024C25.8456 19.2663 25.4303 19.3819 25.1345 19.6704C24.8931 19.8975 24.7773 20.2276 24.7529 20.5521C24.736 20.785 24.7494 21.0196 24.7453 21.2531C24.7459 22.4469 24.7438 23.6407 24.7461 24.8346C24.2859 24.7419 23.8259 24.6478 23.3657 24.5555C23.2776 24.5402 23.1916 24.5148 23.1026 24.5069C23.0803 24.3822 23.0983 24.2538 23.0927 24.1276C23.0927 22.8589 23.0923 21.59 23.0929 20.3213C23.1063 19.9219 23.1727 19.5186 23.338 19.1521C23.4999 18.7802 23.7773 18.4646 24.1101 18.2352C24.5531 17.9304 25.0669 17.7498 25.5825 17.6108C25.7989 17.5558 26.0144 17.4933 26.2361 17.4627H26.2361ZM8.21729 17.6851C8.61401 17.4557 9.07457 17.3444 9.53169 17.349C10.2591 17.3757 10.9662 17.7552 11.3911 18.3465C11.6074 18.0551 11.903 17.8276 12.2259 17.6654C12.9506 17.3161 13.8259 17.2635 14.575 17.5678C14.9221 17.7101 15.2377 17.933 15.4785 18.2216C15.7256 18.5132 15.8948 18.8661 15.9926 19.2344C16.0965 19.6148 16.124 20.0115 16.1163 20.4044C16.1165 21.8816 16.1157 23.3588 16.1167 24.8358C15.5666 24.7224 15.0158 24.6099 14.4644 24.503C14.4588 23.0883 14.465 21.6736 14.4615 20.2591C14.4642 19.9354 14.3527 19.6024 14.1177 19.3736C13.8671 19.1186 13.5022 18.9997 13.1496 19.0061C12.835 19.0007 12.5121 19.0925 12.2672 19.295C11.9851 19.5188 11.8356 19.8826 11.8364 20.2388C11.8374 21.771 11.8352 23.3032 11.8374 24.8354C11.2864 24.7232 10.7354 24.6081 10.183 24.5034C10.1739 24.0476 10.1818 23.5913 10.1791 23.1353C10.1793 22.1834 10.1791 21.2316 10.1793 20.28C10.1915 19.9538 10.0802 19.6166 9.84749 19.3831C9.64563 19.172 9.36374 19.052 9.07664 19.0162C8.80776 18.9885 8.52815 19.0088 8.27745 19.1159C8.01025 19.2239 7.78458 19.4334 7.66172 19.6946C7.57837 19.8704 7.54197 20.0655 7.54116 20.2593C7.54135 21.4522 7.54116 22.6453 7.54116 23.8382C7.54383 24.1694 7.53576 24.5009 7.5453 24.8318C6.99472 24.7295 6.44805 24.6068 5.89768 24.5046C5.88589 24.3104 5.90223 24.1156 5.8888 23.9218C5.89726 23.7009 5.89664 23.479 5.8892 23.2583C5.90223 23.0519 5.88672 22.845 5.89416 22.6386C5.89333 22.0529 5.89397 21.4669 5.89373 20.8812C5.89066 20.5153 5.90016 20.149 5.88899 19.7836C5.89687 19.5774 5.89706 19.3701 5.88899 19.1639C5.89997 18.7573 5.89085 18.3496 5.89354 17.9428C5.89788 17.9037 5.86707 17.8443 5.90926 17.8197C6.45343 17.7128 6.99824 17.6085 7.54259 17.5026C7.53887 17.7519 7.5428 18.0011 7.54052 18.2503C7.73473 18.0282 7.95873 17.8296 8.21729 17.6851ZM31.898 17.3591C32.7019 17.3068 33.5377 17.4526 34.2316 17.8768C34.6171 18.112 34.9515 18.4292 35.2098 18.7997C35.4373 19.1302 35.6054 19.5004 35.7157 19.8859C35.8369 20.3025 35.8828 20.7375 35.8867 21.1701C35.8849 21.961 35.7018 22.7666 35.2708 23.4374C34.8886 24.0337 34.3089 24.4995 33.6434 24.7419C33.2156 24.9026 32.7594 24.9791 32.3034 24.9882C31.442 25.0056 30.5543 24.7957 29.8491 24.2856C29.2539 23.862 28.8159 23.2349 28.5929 22.5416C28.4387 22.074 28.3764 21.5788 28.3842 21.0876C28.3904 20.233 28.6394 19.3618 29.1763 18.6865C29.6139 18.1291 30.2366 17.7289 30.9147 17.5303C31.2345 17.4356 31.5652 17.3798 31.898 17.3591ZM32.1427 18.9031C31.6769 18.9116 31.2048 19.0567 30.8428 19.3564C30.5445 19.5972 30.3299 19.9323 30.2103 20.295C30.0786 20.6893 30.0516 21.1133 30.0981 21.5247C30.1548 21.9993 30.3403 22.4695 30.6739 22.8184C30.9353 23.0978 31.2855 23.2862 31.6566 23.3731C32.1204 23.479 32.6252 23.4598 33.0597 23.255C33.3803 23.109 33.6479 22.8585 33.8326 22.56C34.0407 22.2221 34.1473 21.8295 34.1797 21.4361C34.2164 20.9888 34.1687 20.529 34.0037 20.1095C33.8571 19.7333 33.5974 19.397 33.2523 19.1831C32.9235 18.9763 32.5287 18.889 32.1427 18.9031ZM18.7786 17.8226C19.3302 17.7165 19.8812 17.6079 20.4331 17.503C20.4302 19.9478 20.4302 22.3915 20.4316 24.8356C19.8825 24.7247 19.3342 24.6077 18.7838 24.5057C18.7689 24.2906 18.7813 24.0742 18.7774 23.8585C18.7782 21.8465 18.7755 19.8344 18.7786 17.8226Z" fill="black"/>
</svg>
