<svg width="41" height="40" viewBox="0 0 41 40" fill="none" xmlns="http://www.w3.org/2000/svg">
<rect x="0.929688" width="40" height="40" rx="4.68966" fill="#333333"/>
<path d="M16.4517 33.7119C18.909 33.7119 20.9033 31.7176 20.9033 29.2603V24.8086H16.4517C13.9943 24.8086 12 26.8029 12 29.2603C12 31.7176 13.9943 33.7119 16.4517 33.7119Z" fill="#0ACF83"/>
<path d="M12 20.354C12 17.8967 13.9943 15.9023 16.4517 15.9023H20.9033V24.8057H16.4517C13.9943 24.8057 12 22.8113 12 20.354Z" fill="#A259FF"/>
<path d="M12 11.4517C12 8.99435 13.9943 7 16.4517 7H20.9033V15.9033H16.4517C13.9943 15.9033 12 13.909 12 11.4517Z" fill="#F24E1E"/>
<path d="M20.9023 7H25.354C27.8113 7 29.8057 8.99435 29.8057 11.4517C29.8057 13.909 27.8113 15.9033 25.354 15.9033H20.9023V7Z" fill="#FF7262"/>
<path d="M29.8057 20.354C29.8057 22.8113 27.8113 24.8057 25.354 24.8057C22.8967 24.8057 20.9023 22.8113 20.9023 20.354C20.9023 17.8967 22.8967 15.9023 25.354 15.9023C27.8113 15.9023 29.8057 17.8967 29.8057 20.354Z" fill="#1ABCFE"/>
</svg>
