<svg width="32" height="32" viewBox="0 0 32 32" fill="none" xmlns="http://www.w3.org/2000/svg">
<path fill-rule="evenodd" clip-rule="evenodd" d="M16 3C12.4683 3 12.0285 3.01517 10.6397 3.08017C5.91633 3.29683 3.29467 5.91633 3.078 10.6397C3.01517 12.0285 3 12.4705 3 16C3 19.5317 3.01517 19.9737 3.078 21.3603C3.29467 26.0815 5.91633 28.7053 10.6397 28.922C12.0285 28.9848 12.4683 29 16 29C19.5317 29 19.9737 28.9848 21.3625 28.922C26.0772 28.7053 28.7097 26.0858 28.922 21.3603C28.9848 19.9737 29 19.5317 29 16C29 12.4705 28.9848 12.0285 28.922 10.6397C28.7097 5.92283 26.0858 3.29467 21.3625 3.08017C19.9737 3.01517 19.5317 3 16 3ZM15.9996 5.34375C19.4706 5.34375 19.8823 5.35675 21.2538 5.41958C24.779 5.57992 26.4213 7.25042 26.5838 10.7474C26.6445 12.1189 26.6575 12.5284 26.6575 15.9994C26.6575 19.4704 26.6445 19.8821 26.5838 21.2514C26.4213 24.7462 24.7811 26.4211 21.2538 26.5814C19.8823 26.6421 19.4728 26.6572 15.9996 26.6572C12.5286 26.6572 12.117 26.6442 10.7476 26.5814C7.21596 26.4189 5.58013 24.7419 5.41763 21.2514C5.35696 19.8821 5.3418 19.4704 5.3418 15.9994C5.3418 12.5284 5.35696 12.1167 5.41763 10.7474C5.57796 7.24825 7.2203 5.57775 10.7476 5.41742C12.117 5.35458 12.5286 5.34375 15.9996 5.34375ZM9.32422 15.9997C9.32422 12.3121 12.3142 9.32422 15.9997 9.32422C19.6852 9.32422 22.6752 12.3142 22.6752 15.9997C22.6752 19.6874 19.6852 22.6752 15.9997 22.6752C12.3142 22.6752 9.32422 19.6874 9.32422 15.9997ZM15.9993 20.3327C13.6052 20.3327 11.666 18.3935 11.666 15.9993C11.666 13.6073 13.6052 11.666 15.9993 11.666C18.3913 11.666 20.3348 13.6052 20.3348 15.9993C20.3348 18.3935 18.3913 20.3327 15.9993 20.3327ZM21.377 9.06195C21.377 8.19962 22.0768 7.50195 22.937 7.50195C23.8015 7.50195 24.4991 8.19962 24.4991 9.06195C24.4991 9.92429 23.7993 10.622 22.937 10.622C22.0746 10.622 21.377 9.92212 21.377 9.06195Z" fill="white"/>
</svg>
