<svg width="165" height="33" viewBox="0 0 165 33" fill="none" xmlns="http://www.w3.org/2000/svg">
<path d="M14.5979 5.8541C15.1966 4.01148 17.8034 4.01148 18.4021 5.8541L19.7555 10.0193C20.0232 10.8433 20.7911 11.4012 21.6576 11.4012H26.0371C27.9745 11.4012 28.7801 13.8805 27.2126 15.0193L23.6695 17.5935C22.9686 18.1027 22.6753 19.0055 22.943 19.8295L24.2963 23.9947C24.895 25.8373 22.7861 27.3695 21.2187 26.2307L17.6756 23.6565C16.9746 23.1473 16.0254 23.1473 15.3244 23.6565L11.7813 26.2307C10.2139 27.3695 8.10495 25.8373 8.70366 23.9947L10.057 19.8295C10.3247 19.0055 10.0314 18.1027 9.33045 17.5935L5.78736 15.0193C4.21994 13.8805 5.02549 11.4012 6.96293 11.4012H11.3424C12.2089 11.4012 12.9768 10.8433 13.2445 10.0193L14.5979 5.8541Z" fill="#F5CE6A"/>
<path d="M47.5979 5.8541C48.1966 4.01148 50.8034 4.01148 51.4021 5.8541L52.7555 10.0193C53.0232 10.8433 53.7911 11.4012 54.6576 11.4012H59.0371C60.9745 11.4012 61.7801 13.8805 60.2126 15.0193L56.6695 17.5935C55.9686 18.1027 55.6753 19.0055 55.943 19.8295L57.2963 23.9947C57.895 25.8373 55.7861 27.3695 54.2187 26.2307L50.6756 23.6565C49.9746 23.1473 49.0254 23.1473 48.3244 23.6565L44.7813 26.2307C43.2139 27.3695 41.105 25.8373 41.7037 23.9947L43.057 19.8295C43.3247 19.0055 43.0314 18.1027 42.3305 17.5935L38.7874 15.0193C37.2199 13.8805 38.0255 11.4012 39.9629 11.4012H44.3424C45.2089 11.4012 45.9768 10.8433 46.2445 10.0193L47.5979 5.8541Z" fill="#F5CE6A"/>
<path d="M80.5979 5.8541C81.1966 4.01148 83.8034 4.01148 84.4021 5.8541L85.7555 10.0193C86.0232 10.8433 86.7911 11.4012 87.6576 11.4012H92.0371C93.9745 11.4012 94.7801 13.8805 93.2126 15.0193L89.6695 17.5935C88.9686 18.1027 88.6753 19.0055 88.943 19.8295L90.2963 23.9947C90.895 25.8373 88.7861 27.3695 87.2187 26.2307L83.6756 23.6565C82.9746 23.1473 82.0254 23.1473 81.3244 23.6565L77.7813 26.2307C76.2139 27.3695 74.105 25.8373 74.7037 23.9947L76.057 19.8295C76.3247 19.0055 76.0314 18.1027 75.3305 17.5935L71.7874 15.0193C70.2199 13.8805 71.0255 11.4012 72.9629 11.4012H77.3424C78.2089 11.4012 78.9768 10.8433 79.2445 10.0193L80.5979 5.8541Z" fill="#F5CE6A"/>
<path d="M113.598 5.8541C114.197 4.01148 116.803 4.01148 117.402 5.8541L118.755 10.0193C119.023 10.8433 119.791 11.4012 120.658 11.4012H125.037C126.975 11.4012 127.78 13.8805 126.213 15.0193L122.67 17.5935C121.969 18.1027 121.675 19.0055 121.943 19.8295L123.296 23.9947C123.895 25.8373 121.786 27.3695 120.219 26.2307L116.676 23.6565C115.975 23.1473 115.025 23.1473 114.324 23.6565L110.781 26.2307C109.214 27.3695 107.105 25.8373 107.704 23.9947L109.057 19.8295C109.325 19.0055 109.031 18.1027 108.33 17.5935L104.787 15.0193C103.22 13.8805 104.025 11.4012 105.963 11.4012H110.342C111.209 11.4012 111.977 10.8433 112.245 10.0193L113.598 5.8541Z" fill="#F5CE6A"/>
<path d="M146.598 5.8541C147.197 4.01148 149.803 4.01148 150.402 5.8541L151.755 10.0193C152.023 10.8433 152.791 11.4012 153.658 11.4012H158.037C159.975 11.4012 160.78 13.8805 159.213 15.0193L155.67 17.5935C154.969 18.1027 154.675 19.0055 154.943 19.8295L156.296 23.9947C156.895 25.8373 154.786 27.3695 153.219 26.2307L149.676 23.6565C148.975 23.1473 148.025 23.1473 147.324 23.6565L143.781 26.2307C142.214 27.3695 140.105 25.8373 140.704 23.9947L142.057 19.8295C142.325 19.0055 142.031 18.1027 141.33 17.5935L137.787 15.0193C136.22 13.8805 137.025 11.4012 138.963 11.4012H143.342C144.209 11.4012 144.977 10.8433 145.245 10.0193L146.598 5.8541Z" fill="#F5CE6A"/>
</svg>
