<svg width="41" height="42" viewBox="0 0 41 42" fill="none" xmlns="http://www.w3.org/2000/svg">
<rect x="0.253906" y="0.882812" width="40" height="40" rx="4.68966" transform="rotate(0.333266 0.253906 0.882812)" fill="white"/>
<path d="M11.0057 11.7114C11.9095 12.4456 12.2485 12.3896 13.9456 12.2764L29.9448 11.3157C30.284 11.3157 30.0019 10.9772 29.8889 10.9209L27.2316 9.00007C26.7225 8.60481 26.0441 8.15213 24.7442 8.26537L9.25215 9.3953C8.68718 9.45133 8.57431 9.7338 8.79934 9.96025L11.0057 11.7114ZM11.9663 15.44V32.274C11.9663 33.1786 12.4184 33.5172 13.436 33.4612L31.0191 32.4438C32.0371 32.3878 32.1505 31.7654 32.1505 31.0306V14.3096C32.1505 13.5758 31.8684 13.1801 31.2451 13.2366L12.8705 14.3096C12.1925 14.3666 11.9663 14.7058 11.9663 15.44ZM29.3243 16.343C29.4371 16.852 29.3243 17.3604 28.8144 17.4176L27.9672 17.5864V30.0142C27.2316 30.4096 26.5534 30.6356 25.9882 30.6356C25.0832 30.6356 24.8566 30.353 24.1787 29.5061L18.6372 20.8065V29.2237L20.3907 29.6193C20.3907 29.6193 20.3907 30.6356 18.976 30.6356L15.0758 30.8618C14.9625 30.6356 15.0758 30.0713 15.4714 29.9581L16.4891 29.6761V18.5471L15.076 18.4339C14.9627 17.9249 15.2449 17.1912 16.037 17.1342L20.2211 16.8522L25.9882 25.665V17.8689L24.5178 17.7001C24.4049 17.078 24.8566 16.6262 25.422 16.5702L29.3243 16.343ZM7.9514 7.87011L24.0656 6.68345C26.0446 6.51373 26.5536 6.62742 27.7974 7.5309L32.9411 11.1462C33.79 11.7679 34.0728 11.9372 34.0728 12.6149V32.4438C34.0728 33.6864 33.6202 34.4214 32.0373 34.5337L13.324 35.6639C12.1359 35.7205 11.5705 35.5511 10.9483 34.7597L7.16024 29.8451C6.48148 28.9404 6.19922 28.2635 6.19922 27.4717V9.84659C6.19922 8.83034 6.65203 7.98266 7.9514 7.87011Z" fill="black"/>
</svg>
