<svg width="40" height="40" viewBox="0 0 40 40" fill="none" xmlns="http://www.w3.org/2000/svg">
<rect width="40" height="40" rx="4.68966" fill="#206DF6"/>
<path fill-rule="evenodd" clip-rule="evenodd" d="M7.0549 25.4115C5.26814 23.6399 5.26816 20.7675 7.05495 18.9959L11.9079 14.1842C13.4184 12.6866 15.7222 12.4549 17.4781 13.4893C18.0212 13.8093 18.0164 14.5432 17.5697 14.9861C17.1231 15.429 16.3938 15.3909 15.7875 15.2151C15.0111 14.9899 14.1379 15.1809 13.5256 15.7881L8.6726 20.5998C7.77921 21.4856 7.77919 22.9218 8.67257 23.8076C9.56597 24.6934 11.0145 24.6934 11.9079 23.8076L21.6138 14.1842C23.4006 12.4126 26.2975 12.4126 28.0844 14.1842L32.9374 18.9959C34.7242 20.7675 34.7242 23.6399 32.9374 25.4115C31.1506 27.1831 28.2536 27.1831 26.4668 25.4115L24.8492 23.8076L22.8271 25.8125C21.3166 27.3101 19.0128 27.5417 17.2569 26.5073C16.7138 26.1874 16.7186 25.4534 17.1653 25.0105C17.612 24.5676 18.3411 24.6057 18.9475 24.7815C19.7239 25.0067 20.5971 24.8157 21.2094 24.2086L23.2893 22.1464C24.1508 21.2922 25.5475 21.2922 26.4091 22.1464L28.0845 23.8076C28.9779 24.6934 30.4263 24.6934 31.3197 23.8076C32.2131 22.9218 32.2131 21.4856 31.3197 20.5998L26.4667 15.7881C25.5733 14.9023 24.1248 14.9023 23.2314 15.7881L13.5256 25.4115C11.7387 27.1831 8.84169 27.1831 7.0549 25.4115Z" fill="white"/>
</svg>
